<svg width="1893" height="1893" viewBox="0 0 1893 1893" fill="none" xmlns="http://www.w3.org/2000/svg">
<path d="M1378 0H515C230.573 0 0 230.573 0 515V1378C0 1662.43 230.573 1893 515 1893H1378C1662.43 1893 1893 1662.43 1893 1378V515C1893 230.573 1662.43 0 1378 0Z" fill="url(#paint0_linear_1_12)"/>
<g filter="url(#filter0_d_1_12)">
<path d="M824.456 997.402C812.397 1010.63 800.603 1023.46 788.95 1036.41C778.612 1047.89 768.538 1059.62 758.173 1071.08C745.443 1085.16 732.529 1099.07 719.72 1113.07C708.429 1125.41 697.146 1137.75 685.917 1150.15C681.153 1155.4 676.61 1160.86 671.829 1166.1C659.32 1179.81 646.644 1193.37 634.206 1207.15C623.47 1219.03 613.097 1231.24 602.326 1243.09C591.087 1255.46 579.461 1267.48 568.214 1279.84C557.54 1291.58 547.263 1303.69 536.607 1315.44C525.183 1328.03 513.424 1340.32 501.992 1352.91C491.23 1364.77 480.829 1376.94 470.067 1388.79C459.014 1400.95 447.617 1412.81 436.573 1424.97C425.713 1436.93 415.11 1449.12 404.33 1461.15C403.572 1462 402.328 1462.39 401.305 1463C400.908 1462.01 400.299 1461.04 400.176 1460.02C399.964 1458.34 400.043 1456.62 400.043 1454.92C400.07 1074.27 400.096 693.629 400.131 312.981C400.131 311.703 399.761 310.24 400.264 309.2C400.846 307.974 402.125 307.04 403.237 306.141C403.581 305.859 404.339 306.088 404.904 306.088C541.961 306.167 679.019 306.07 816.076 306.493C838.994 306.564 861.92 308.565 884.803 310.248C906.874 311.87 929.033 313.272 950.893 316.534C978.944 320.73 1006.92 325.86 1034.58 332.074C1076.62 341.524 1117.38 355.258 1156.91 372.526C1192.66 388.146 1226.9 406.526 1258.85 428.916C1273.47 439.167 1287.41 450.424 1301.53 461.381C1306.06 464.89 1306 465.604 1302.26 469.738C1288.87 484.582 1275.37 499.33 1262 514.192C1243.31 534.96 1224.77 555.86 1206.03 576.593C1195.09 588.705 1183.85 600.526 1172.89 612.62C1162.04 624.608 1151.47 636.852 1140.62 648.84C1130.26 660.3 1119.59 671.495 1109.24 682.963C1089.65 704.639 1070.25 726.483 1050.64 748.159C1040 759.935 1029.02 771.421 1018.37 783.189C1007.32 795.372 996.543 807.792 985.534 820.001C976.13 830.42 966.542 840.681 957.076 851.047C946.076 863.088 935.067 875.112 924.19 887.268C922.029 889.683 920.582 890.882 917.786 887.938C890.484 859.263 863.023 830.728 835.721 802.053C810.871 775.952 786.066 749.798 761.419 723.503C753.021 714.547 743.511 707.231 732 703.141C721.026 699.244 709.611 697.719 697.826 699.288C687.725 700.628 678.304 703.44 669.553 708.747C654.266 718.029 644.104 731.128 638.476 748.088C634.091 761.302 633.986 774.551 637.091 787.861C640.363 801.912 648.55 813.204 658.429 823.421C672.041 837.49 685.626 851.594 699.131 865.768C726.442 894.434 753.691 923.162 780.985 951.846C795.346 966.946 809.751 981.993 824.456 997.402Z" fill="black"/>
</g>
<g filter="url(#filter1_d_1_12)">
<path d="M463 1587.18C465.041 1585.64 467.345 1584.34 469.095 1582.5C481.119 1569.88 493.178 1557.28 504.947 1544.43C520.269 1527.69 535.284 1510.68 550.536 1493.87C570.071 1472.35 589.765 1450.96 609.274 1429.42C619.46 1418.17 629.329 1406.63 639.505 1395.37C651.107 1382.54 662.981 1369.96 674.574 1357.12C692.535 1337.23 710.312 1317.16 728.255 1297.24C740.789 1283.34 753.552 1269.64 766.086 1255.74C784.038 1235.84 801.823 1215.78 819.775 1195.86C831.738 1182.59 843.929 1169.53 855.9 1156.25C874.134 1136.03 892.253 1115.7 910.451 1095.44C914.586 1090.84 915.298 1090.85 919.467 1095.23C936.285 1112.91 953.076 1130.6 969.876 1148.28C985.796 1165.05 1001.73 1181.79 1017.65 1198.56C1032.59 1214.3 1047.51 1230.05 1062.45 1245.79C1078.66 1262.87 1094.9 1279.93 1111.07 1297.03C1119.6 1306.05 1129.91 1312.37 1141.42 1316.51C1149.72 1319.5 1158.56 1319.27 1167.33 1319.28C1182.22 1319.3 1195.43 1314.08 1206.81 1305.19C1218.92 1295.73 1227.47 1283.45 1231.81 1268.17C1234.92 1257.18 1235.08 1246.14 1233.43 1235.32C1231.49 1222.59 1225.82 1210.96 1216.96 1201.36C1203.77 1187.08 1190.36 1173.02 1176.95 1158.95C1158.45 1139.54 1139.81 1120.28 1121.35 1100.83C1108.74 1087.56 1096.4 1074.03 1083.85 1060.72C1067.31 1043.16 1050.67 1025.69 1034.07 1008.2C1027.52 1001.3 1021.01 994.395 1014.34 987.627C1011.88 985.144 1012.06 983.271 1014.34 980.771C1037.05 955.793 1059.73 930.779 1082.33 905.703C1107.97 877.253 1133.46 848.67 1159.12 820.246C1178.04 799.296 1197.2 778.559 1216.13 757.619C1242.48 728.47 1268.67 699.171 1295 670.005C1312.78 650.31 1330.72 630.766 1348.53 611.107C1362.14 596.078 1375.64 580.933 1389.27 565.904C1392.95 561.84 1393.74 562.016 1396.84 566.593C1423.63 606.053 1444.65 648.42 1460.75 693.322C1471.04 722.011 1479.7 751.213 1485.25 781.122C1490.48 809.316 1494.01 837.846 1497.66 866.314C1499.21 878.357 1499.63 890.603 1499.71 902.761C1499.94 936.761 1500.36 970.778 1499.39 1004.74C1498.93 1020.67 1495.77 1036.57 1493.3 1052.39C1486.67 1094.82 1475.63 1136.11 1460.12 1176.12C1435.24 1240.31 1401 1298.96 1355.1 1350.33C1313.45 1396.94 1266.24 1437.08 1213.58 1470.7C1175.95 1494.73 1136.28 1514.64 1094.86 1531.18C1057.02 1546.3 1018.19 1558.14 978.54 1567.15C941.659 1575.54 904.25 1580.62 866.666 1585.02C828.272 1589.51 789.887 1588.95 751.441 1588.97C658.258 1589.02 565.084 1589 471.901 1588.97C469.052 1588.97 466.202 1588.7 463.352 1588.55C463.229 1588.1 463.114 1587.64 463 1587.18Z" fill="black"/>
</g>
<defs>
<filter id="filter0_d_1_12" x="393" y="299" width="919" height="1171" filterUnits="userSpaceOnUse" color-interpolation-filters="sRGB">
<feFlood flood-opacity="0" result="BackgroundImageFix"/>
<feColorMatrix in="SourceAlpha" type="matrix" values="0 0 0 0 0 0 0 0 0 0 0 0 0 0 0 0 0 0 127 0" result="hardAlpha"/>
<feOffset/>
<feGaussianBlur stdDeviation="3.5"/>
<feComposite in2="hardAlpha" operator="out"/>
<feColorMatrix type="matrix" values="0 0 0 0 0 0 0 0 0 0 0 0 0 0 0 0 0 0 0.25 0"/>
<feBlend mode="normal" in2="BackgroundImageFix" result="effect1_dropShadow_1_12"/>
<feBlend mode="normal" in="SourceGraphic" in2="effect1_dropShadow_1_12" result="shape"/>
</filter>
<filter id="filter1_d_1_12" x="456" y="557" width="1051" height="1040" filterUnits="userSpaceOnUse" color-interpolation-filters="sRGB">
<feFlood flood-opacity="0" result="BackgroundImageFix"/>
<feColorMatrix in="SourceAlpha" type="matrix" values="0 0 0 0 0 0 0 0 0 0 0 0 0 0 0 0 0 0 127 0" result="hardAlpha"/>
<feOffset dy="1"/>
<feGaussianBlur stdDeviation="3.5"/>
<feComposite in2="hardAlpha" operator="out"/>
<feColorMatrix type="matrix" values="0 0 0 0 0 0 0 0 0 0 0 0 0 0 0 0 0 0 0.25 0"/>
<feBlend mode="normal" in2="BackgroundImageFix" result="effect1_dropShadow_1_12"/>
<feBlend mode="normal" in="SourceGraphic" in2="effect1_dropShadow_1_12" result="shape"/>
</filter>
<linearGradient id="paint0_linear_1_12" x1="946.5" y1="0" x2="946.5" y2="1893" gradientUnits="userSpaceOnUse">
<stop stop-color="#40E4E0"/>
<stop offset="1" stop-color="#269CF9"/>
</linearGradient>
</defs>
</svg>
