<svg width="1893" height="1893" viewBox="0 0 1893 1893" fill="none" xmlns="http://www.w3.org/2000/svg">
<path d="M1378 0H515C230.573 0 0 230.573 0 515V1378C0 1662.43 230.573 1893 515 1893H1378C1662.43 1893 1893 1662.43 1893 1378V515C1893 230.573 1662.43 0 1378 0Z" fill="black"/>
<g filter="url(#filter0_d_1_2)">
<path d="M853.456 996.402C841.397 1009.63 829.603 1022.46 817.95 1035.41C807.612 1046.89 797.538 1058.62 787.173 1070.08C774.443 1084.16 761.529 1098.07 748.72 1112.07C737.429 1124.41 726.146 1136.75 714.917 1149.15C710.153 1154.4 705.61 1159.86 700.829 1165.1C688.32 1178.81 675.644 1192.37 663.206 1206.15C652.47 1218.03 642.097 1230.24 631.326 1242.09C620.087 1254.46 608.461 1266.48 597.214 1278.84C586.54 1290.58 576.263 1302.69 565.607 1314.44C554.183 1327.03 542.424 1339.32 530.992 1351.91C520.23 1363.77 509.829 1375.94 499.067 1387.79C488.014 1399.95 476.617 1411.81 465.573 1423.97C454.713 1435.93 444.11 1448.12 433.33 1460.15C432.572 1461 431.328 1461.39 430.305 1462C429.908 1461.01 429.299 1460.04 429.176 1459.02C428.964 1457.34 429.043 1455.62 429.043 1453.92C429.07 1073.27 429.096 692.629 429.131 311.981C429.131 310.703 428.761 309.24 429.264 308.2C429.846 306.974 431.125 306.04 432.237 305.141C432.581 304.859 433.339 305.088 433.904 305.088C570.961 305.167 708.019 305.07 845.076 305.493C867.994 305.564 890.92 307.565 913.803 309.248C935.874 310.87 958.033 312.272 979.893 315.534C1007.94 319.73 1035.92 324.86 1063.58 331.074C1105.62 340.524 1146.38 354.258 1185.91 371.526C1221.66 387.146 1255.9 405.526 1287.85 427.916C1302.47 438.167 1316.41 449.424 1330.53 460.381C1335.06 463.89 1335 464.604 1331.26 468.738C1317.87 483.582 1304.37 498.33 1291 513.192C1272.31 533.96 1253.77 554.86 1235.03 575.593C1224.09 587.705 1212.85 599.526 1201.89 611.62C1191.04 623.608 1180.47 635.852 1169.62 647.84C1159.26 659.3 1148.59 670.495 1138.24 681.963C1118.65 703.639 1099.25 725.483 1079.64 747.159C1069 758.935 1058.02 770.421 1047.37 782.189C1036.32 794.372 1025.54 806.792 1014.53 819.001C1005.13 829.42 995.542 839.681 986.076 850.047C975.076 862.088 964.067 874.112 953.19 886.268C951.029 888.683 949.582 889.882 946.786 886.938C919.484 858.263 892.023 829.728 864.721 801.053C839.871 774.952 815.066 748.798 790.419 722.503C782.021 713.547 772.511 706.231 761 702.141C750.026 698.244 738.611 696.719 726.826 698.288C716.725 699.628 707.304 702.44 698.553 707.747C683.266 717.029 673.104 730.128 667.476 747.088C663.091 760.302 662.986 773.551 666.091 786.861C669.363 800.912 677.55 812.204 687.429 822.421C701.041 836.49 714.626 850.594 728.131 864.768C755.442 893.434 782.691 922.162 809.985 950.846C824.346 965.946 838.751 980.993 853.456 996.402Z" fill="url(#paint0_linear_1_2)"/>
</g>
<g filter="url(#filter1_d_1_2)">
<path d="M492 1586.18C494.041 1584.64 496.345 1583.34 498.095 1581.5C510.119 1568.88 522.178 1556.28 533.947 1543.43C549.269 1526.69 564.284 1509.68 579.536 1492.87C599.071 1471.35 618.765 1449.96 638.274 1428.42C648.46 1417.17 658.329 1405.63 668.505 1394.37C680.107 1381.54 691.981 1368.96 703.574 1356.12C721.535 1336.23 739.312 1316.16 757.255 1296.24C769.789 1282.34 782.552 1268.64 795.086 1254.74C813.038 1234.84 830.823 1214.78 848.775 1194.86C860.738 1181.59 872.929 1168.53 884.9 1155.25C903.134 1135.03 921.253 1114.7 939.451 1094.44C943.586 1089.84 944.298 1089.85 948.467 1094.23C965.285 1111.91 982.076 1129.6 998.876 1147.28C1014.8 1164.05 1030.73 1180.79 1046.65 1197.56C1061.59 1213.3 1076.51 1229.05 1091.45 1244.79C1107.66 1261.87 1123.9 1278.93 1140.07 1296.03C1148.6 1305.05 1158.91 1311.37 1170.42 1315.51C1178.72 1318.5 1187.56 1318.27 1196.33 1318.28C1211.22 1318.3 1224.43 1313.08 1235.81 1304.19C1247.92 1294.73 1256.47 1282.45 1260.81 1267.17C1263.92 1256.18 1264.08 1245.14 1262.43 1234.32C1260.49 1221.59 1254.82 1209.96 1245.96 1200.36C1232.77 1186.08 1219.36 1172.02 1205.95 1157.95C1187.45 1138.54 1168.81 1119.28 1150.35 1099.83C1137.74 1086.56 1125.4 1073.03 1112.85 1059.72C1096.31 1042.16 1079.67 1024.69 1063.07 1007.2C1056.52 1000.3 1050.01 993.395 1043.34 986.627C1040.88 984.144 1041.06 982.271 1043.34 979.771C1066.05 954.793 1088.73 929.779 1111.33 904.703C1136.97 876.253 1162.46 847.67 1188.12 819.246C1207.04 798.296 1226.2 777.559 1245.13 756.619C1271.48 727.47 1297.67 698.171 1324 669.005C1341.78 649.31 1359.72 629.766 1377.53 610.107C1391.14 595.078 1404.64 579.933 1418.27 564.904C1421.95 560.84 1422.74 561.016 1425.84 565.593C1452.63 605.053 1473.65 647.42 1489.75 692.322C1500.04 721.011 1508.7 750.213 1514.25 780.122C1519.48 808.316 1523.01 836.846 1526.66 865.314C1528.21 877.357 1528.63 889.603 1528.71 901.761C1528.94 935.761 1529.36 969.778 1528.39 1003.74C1527.93 1019.67 1524.77 1035.57 1522.3 1051.39C1515.67 1093.82 1504.63 1135.11 1489.12 1175.12C1464.24 1239.31 1430 1297.96 1384.1 1349.33C1342.45 1395.94 1295.24 1436.08 1242.58 1469.7C1204.95 1493.73 1165.28 1513.64 1123.86 1530.18C1086.02 1545.3 1047.19 1557.14 1007.54 1566.15C970.659 1574.54 933.25 1579.62 895.666 1584.02C857.272 1588.51 818.887 1587.95 780.441 1587.97C687.258 1588.02 594.084 1588 500.901 1587.97C498.052 1587.97 495.202 1587.7 492.352 1587.55C492.229 1587.1 492.114 1586.64 492 1586.18Z" fill="url(#paint1_linear_1_2)"/>
</g>
<defs>
<filter id="filter0_d_1_2" x="422" y="298" width="919" height="1171" filterUnits="userSpaceOnUse" color-interpolation-filters="sRGB">
<feFlood flood-opacity="0" result="BackgroundImageFix"/>
<feColorMatrix in="SourceAlpha" type="matrix" values="0 0 0 0 0 0 0 0 0 0 0 0 0 0 0 0 0 0 127 0" result="hardAlpha"/>
<feOffset/>
<feGaussianBlur stdDeviation="3.5"/>
<feComposite in2="hardAlpha" operator="out"/>
<feColorMatrix type="matrix" values="0 0 0 0 0 0 0 0 0 0 0 0 0 0 0 0 0 0 0.25 0"/>
<feBlend mode="normal" in2="BackgroundImageFix" result="effect1_dropShadow_1_2"/>
<feBlend mode="normal" in="SourceGraphic" in2="effect1_dropShadow_1_2" result="shape"/>
</filter>
<filter id="filter1_d_1_2" x="485" y="556" width="1051" height="1040" filterUnits="userSpaceOnUse" color-interpolation-filters="sRGB">
<feFlood flood-opacity="0" result="BackgroundImageFix"/>
<feColorMatrix in="SourceAlpha" type="matrix" values="0 0 0 0 0 0 0 0 0 0 0 0 0 0 0 0 0 0 127 0" result="hardAlpha"/>
<feOffset dy="1"/>
<feGaussianBlur stdDeviation="3.5"/>
<feComposite in2="hardAlpha" operator="out"/>
<feColorMatrix type="matrix" values="0 0 0 0 0 0 0 0 0 0 0 0 0 0 0 0 0 0 0.25 0"/>
<feBlend mode="normal" in2="BackgroundImageFix" result="effect1_dropShadow_1_2"/>
<feBlend mode="normal" in="SourceGraphic" in2="effect1_dropShadow_1_2" result="shape"/>
</filter>
<linearGradient id="paint0_linear_1_2" x1="881.5" y1="305" x2="881.5" y2="1462" gradientUnits="userSpaceOnUse">
<stop stop-color="#40E3E0"/>
<stop offset="1" stop-color="#279FF8"/>
</linearGradient>
<linearGradient id="paint1_linear_1_2" x1="1010.5" y1="562" x2="1010.5" y2="1588" gradientUnits="userSpaceOnUse">
<stop stop-color="#40E3E0"/>
<stop offset="1" stop-color="#279FF8"/>
</linearGradient>
</defs>
</svg>
