<svg width="301" height="301" viewBox="0 0 301 301" fill="none" xmlns="http://www.w3.org/2000/svg">
<g filter="url(#filter0_i_98_3332)">
<circle cx="150.5" cy="150.5" r="150.5" fill="url(#paint0_linear_98_3332)"/>
</g>
<circle cx="150.5" cy="150.5" r="150" stroke="url(#paint1_linear_98_3332)"/>
<g filter="url(#filter1_i_98_3332)">
<circle cx="150.5" cy="150.5" r="131.5" fill="url(#paint2_linear_98_3332)"/>
</g>
<g filter="url(#filter2_i_98_3332)">
<path d="M148.998 156.052C147.493 157.699 146.02 159.295 144.565 160.906C143.274 162.336 142.016 163.795 140.722 165.221C139.133 166.973 137.52 168.705 135.921 170.448C134.511 171.984 133.102 173.52 131.7 175.062C131.105 175.716 130.538 176.395 129.941 177.048C128.379 178.754 126.796 180.442 125.243 182.156C123.903 183.635 122.608 185.155 121.263 186.63C119.86 188.17 118.408 189.665 117.003 191.204C115.671 192.666 114.388 194.172 113.057 195.634C111.631 197.202 110.162 198.732 108.735 200.298C107.391 201.774 106.092 203.289 104.749 204.763C103.369 206.277 101.946 207.753 100.567 209.267C99.2106 210.755 97.8867 212.272 96.5407 213.77C96.446 213.875 96.2907 213.924 96.1629 214C96.1133 213.877 96.0373 213.756 96.0219 213.629C95.9955 213.42 96.0054 213.206 96.0054 212.994C96.0087 165.619 96.012 118.244 96.0164 70.8689C96.0164 70.7098 95.9702 70.5277 96.0329 70.3982C96.1056 70.2457 96.2653 70.1294 96.4041 70.0175C96.4471 69.9824 96.5418 70.0109 96.6123 70.0109C113.726 70.0208 130.839 70.0087 147.952 70.0614C150.814 70.0702 153.676 70.3192 156.533 70.5288C159.289 70.7306 162.056 70.9051 164.785 71.311C168.288 71.8332 171.781 72.4717 175.235 73.2452C180.484 74.4213 185.573 76.1306 190.509 78.2799C194.973 80.2239 199.248 82.5114 203.237 85.2981C205.063 86.574 206.804 87.975 208.567 89.3387C209.132 89.7754 209.124 89.8642 208.658 90.3788C206.986 92.2263 205.3 94.0618 203.631 95.9115C201.297 98.4963 198.982 101.098 196.643 103.678C195.277 105.185 193.873 106.657 192.505 108.162C191.15 109.654 189.83 111.178 188.475 112.67C187.181 114.096 185.85 115.489 184.557 116.917C182.111 119.615 179.688 122.333 177.241 125.031C175.911 126.497 174.541 127.926 173.21 129.391C171.831 130.907 170.485 132.453 169.111 133.972C167.937 135.269 166.739 136.546 165.558 137.836C164.184 139.335 162.809 140.832 161.451 142.344C161.182 142.645 161.001 142.794 160.652 142.428C157.243 138.859 153.814 135.308 150.405 131.739C147.302 128.49 144.205 125.235 141.127 121.962C140.079 120.848 138.891 119.937 137.454 119.428C136.084 118.943 134.659 118.753 133.187 118.949C131.926 119.115 130.75 119.465 129.657 120.126C127.748 121.281 126.479 122.911 125.777 125.022C125.229 126.667 125.216 128.316 125.604 129.972C126.012 131.721 127.034 133.127 128.268 134.398C129.968 136.149 131.664 137.904 133.35 139.669C136.76 143.236 140.163 146.812 143.57 150.382C145.364 152.261 147.162 154.134 148.998 156.052Z" fill="white"/>
<path d="M104 229.775C104.254 229.584 104.541 229.423 104.758 229.196C106.254 227.634 107.754 226.074 109.218 224.483C111.124 222.412 112.992 220.305 114.889 218.225C117.319 215.561 119.769 212.913 122.196 210.246C123.463 208.854 124.691 207.426 125.957 206.032C127.4 204.444 128.877 202.887 130.319 201.298C132.554 198.835 134.765 196.351 136.997 193.886C138.556 192.165 140.144 190.469 141.703 188.749C143.936 186.285 146.149 183.802 148.382 181.337C149.87 179.694 151.387 178.077 152.876 176.434C155.144 173.931 157.398 171.414 159.662 168.906C160.176 168.337 160.265 168.339 160.783 168.88C162.875 171.068 164.964 173.259 167.054 175.448C169.034 177.522 171.016 179.595 172.996 181.671C174.855 183.618 176.711 185.569 178.57 187.517C180.587 189.632 182.607 191.742 184.619 193.86C185.679 194.976 186.961 195.758 188.394 196.271C189.427 196.641 190.526 196.613 191.617 196.614C193.47 196.616 195.112 195.969 196.528 194.869C198.034 193.699 199.098 192.179 199.637 190.287C200.025 188.927 200.044 187.56 199.84 186.221C199.598 184.645 198.892 183.205 197.79 182.017C196.149 180.25 194.482 178.509 192.813 176.768C190.512 174.365 188.193 171.981 185.897 169.573C184.329 167.931 182.794 166.256 181.232 164.608C179.174 162.435 177.105 160.273 175.039 158.107C174.225 157.254 173.416 156.399 172.585 155.561C172.28 155.254 172.302 155.022 172.585 154.712C175.41 151.621 178.231 148.524 181.043 145.42C184.233 141.899 187.403 138.361 190.595 134.842C192.949 132.249 195.333 129.682 197.688 127.09C200.965 123.482 204.223 119.856 207.499 116.245C209.71 113.807 211.941 111.388 214.157 108.955C215.851 107.094 217.53 105.22 219.225 103.359C219.684 102.856 219.781 102.878 220.167 103.445C223.499 108.329 226.114 113.573 228.118 119.132C229.398 122.683 230.475 126.297 231.165 129.999C231.816 133.489 232.255 137.021 232.709 140.545C232.901 142.035 232.954 143.551 232.964 145.056C232.992 149.265 233.045 153.475 232.924 157.68C232.868 159.651 232.474 161.619 232.166 163.578C231.342 168.83 229.968 173.94 228.039 178.893C224.943 186.838 220.685 194.098 214.974 200.457C209.794 206.226 203.921 211.195 197.37 215.357C192.689 218.331 187.755 220.795 182.602 222.844C177.895 224.715 173.064 226.18 168.132 227.296C163.544 228.334 158.89 228.963 154.215 229.507C149.439 230.063 144.664 229.994 139.881 229.996C128.29 230.003 116.699 230 105.107 229.996C104.753 229.996 104.398 229.962 104.044 229.945C104.028 229.889 104.014 229.832 104 229.775Z" fill="white"/>
</g>
<defs>
<filter id="filter0_i_98_3332" x="0" y="0" width="301" height="305" filterUnits="userSpaceOnUse" color-interpolation-filters="sRGB">
<feFlood flood-opacity="0" result="BackgroundImageFix"/>
<feBlend mode="normal" in="SourceGraphic" in2="BackgroundImageFix" result="shape"/>
<feColorMatrix in="SourceAlpha" type="matrix" values="0 0 0 0 0 0 0 0 0 0 0 0 0 0 0 0 0 0 127 0" result="hardAlpha"/>
<feOffset dy="4"/>
<feGaussianBlur stdDeviation="2"/>
<feComposite in2="hardAlpha" operator="arithmetic" k2="-1" k3="1"/>
<feColorMatrix type="matrix" values="0 0 0 0 1 0 0 0 0 0.975 0 0 0 0 0.975 0 0 0 0.51 0"/>
<feBlend mode="normal" in2="shape" result="effect1_innerShadow_98_3332"/>
</filter>
<filter id="filter1_i_98_3332" x="19" y="19" width="263" height="265" filterUnits="userSpaceOnUse" color-interpolation-filters="sRGB">
<feFlood flood-opacity="0" result="BackgroundImageFix"/>
<feBlend mode="normal" in="SourceGraphic" in2="BackgroundImageFix" result="shape"/>
<feColorMatrix in="SourceAlpha" type="matrix" values="0 0 0 0 0 0 0 0 0 0 0 0 0 0 0 0 0 0 127 0" result="hardAlpha"/>
<feMorphology radius="2" operator="erode" in="SourceAlpha" result="effect1_innerShadow_98_3332"/>
<feOffset dy="2"/>
<feGaussianBlur stdDeviation="5"/>
<feComposite in2="hardAlpha" operator="arithmetic" k2="-1" k3="1"/>
<feColorMatrix type="matrix" values="0 0 0 0 0 0 0 0 0 0 0 0 0 0 0 0 0 0 0.31 0"/>
<feBlend mode="normal" in2="shape" result="effect1_innerShadow_98_3332"/>
</filter>
<filter id="filter2_i_98_3332" x="96" y="64" width="137" height="166" filterUnits="userSpaceOnUse" color-interpolation-filters="sRGB">
<feFlood flood-opacity="0" result="BackgroundImageFix"/>
<feBlend mode="normal" in="SourceGraphic" in2="BackgroundImageFix" result="shape"/>
<feColorMatrix in="SourceAlpha" type="matrix" values="0 0 0 0 0 0 0 0 0 0 0 0 0 0 0 0 0 0 127 0" result="hardAlpha"/>
<feOffset dy="-6"/>
<feGaussianBlur stdDeviation="6"/>
<feComposite in2="hardAlpha" operator="arithmetic" k2="-1" k3="1"/>
<feColorMatrix type="matrix" values="0 0 0 0 0 0 0 0 0 0 0 0 0 0 0 0 0 0 0.25 0"/>
<feBlend mode="normal" in2="shape" result="effect1_innerShadow_98_3332"/>
</filter>
<linearGradient id="paint0_linear_98_3332" x1="150.5" y1="0" x2="150.5" y2="301" gradientUnits="userSpaceOnUse">
<stop stop-color="#4C92CE"/>
<stop offset="1" stop-color="#6ACACD"/>
</linearGradient>
<linearGradient id="paint1_linear_98_3332" x1="150.5" y1="0" x2="150.5" y2="301" gradientUnits="userSpaceOnUse">
<stop stop-color="#69C8CE"/>
<stop offset="1" stop-color="#69C8CE"/>
</linearGradient>
<linearGradient id="paint2_linear_98_3332" x1="150.5" y1="19" x2="150.5" y2="282" gradientUnits="userSpaceOnUse">
<stop stop-color="#6ACACD"/>
<stop offset="1" stop-color="#4C92CE"/>
</linearGradient>
</defs>
</svg>
