<svg width="1249" height="1457" viewBox="0 0 1249 1457" fill="none" xmlns="http://www.w3.org/2000/svg">
<path d="M481.169 784.35C467.499 799.36 454.129 813.91 440.919 828.6C429.199 841.63 417.779 854.93 406.029 867.93C391.599 883.9 376.959 899.68 362.439 915.57C349.639 929.57 336.849 943.57 324.119 957.63C318.719 963.59 313.569 969.78 308.149 975.73C293.969 991.28 279.599 1006.66 265.499 1022.29C253.329 1035.77 241.569 1049.62 229.359 1063.07C216.619 1077.1 203.439 1090.73 190.689 1104.76C178.589 1118.08 166.939 1131.81 154.859 1145.14C141.909 1159.43 128.579 1173.37 115.619 1187.65C103.419 1201.1 91.629 1214.91 79.429 1228.35C66.899 1242.15 53.9791 1255.6 41.4591 1269.4C29.1491 1282.96 17.1291 1296.79 4.90906 1310.44C4.04906 1311.4 2.63907 1311.85 1.47907 1312.54C1.02907 1311.42 0.33907 1310.32 0.19907 1309.16C-0.0409301 1307.25 0.0490607 1305.3 0.0490607 1303.37C0.0790607 871.55 0.109067 439.74 0.149067 7.91965C0.149067 6.46965 -0.270939 4.80964 0.299061 3.62964C0.959061 2.23964 2.40907 1.17964 3.66907 0.159636C4.05907 -0.160364 4.91907 0.0996388 5.55907 0.0996388C160.929 0.189639 316.299 0.0796303 471.669 0.55963C497.649 0.63963 523.639 2.90964 549.579 4.81964C574.599 6.65964 599.719 8.24965 624.499 11.9496C656.299 16.7096 688.009 22.5296 719.369 29.5796C767.029 40.2996 813.229 55.8797 858.039 75.4697C898.569 93.1897 937.379 114.04 973.599 139.44C990.179 151.07 1005.98 163.84 1021.99 176.27C1027.12 180.25 1027.05 181.06 1022.82 185.75C1007.64 202.59 992.329 219.32 977.179 236.18C955.989 259.74 934.969 283.45 913.729 306.97C901.329 320.71 888.579 334.12 876.159 347.84C863.859 361.44 851.879 375.33 839.579 388.93C827.829 401.93 815.739 414.63 803.999 427.64C781.799 452.23 759.799 477.01 737.579 501.6C725.509 514.96 713.069 527.99 700.989 541.34C688.469 555.16 676.249 569.25 663.769 583.1C653.109 594.92 642.239 606.56 631.509 618.32C619.039 631.98 606.559 645.62 594.229 659.41C591.779 662.15 590.139 663.51 586.969 660.17C556.019 627.64 524.889 595.27 493.939 562.74C465.769 533.13 437.649 503.46 409.709 473.63C400.189 463.47 389.409 455.17 376.359 450.53C363.919 446.11 350.979 444.38 337.619 446.16C326.169 447.68 315.489 450.87 305.569 456.89C288.239 467.42 276.719 482.28 270.339 501.52C265.369 516.51 265.249 531.54 268.769 546.64C272.479 562.58 281.759 575.39 292.959 586.98C308.389 602.94 323.789 618.94 339.099 635.02C370.059 667.54 400.949 700.13 431.889 732.67C448.169 749.8 464.499 766.87 481.169 784.35Z" fill="url(#paint0_linear_678_7)"/>
<path d="M69.8789 1454.13C72.1989 1452.38 74.8189 1450.91 76.8089 1448.83C90.4789 1434.55 104.189 1420.29 117.569 1405.74C134.989 1386.8 152.059 1367.54 169.399 1348.52C191.609 1324.16 213.999 1299.95 236.179 1275.57C247.759 1262.84 258.979 1249.78 270.549 1237.04C283.739 1222.52 297.239 1208.28 310.419 1193.75C330.839 1171.23 351.049 1148.52 371.449 1125.98C385.699 1110.24 400.209 1094.74 414.459 1079.01C434.869 1056.48 455.089 1033.78 475.499 1011.24C489.099 996.22 502.959 981.43 516.569 966.41C537.299 943.52 557.899 920.51 578.589 897.58C583.289 892.38 584.099 892.39 588.839 897.34C607.959 917.35 627.049 937.38 646.149 957.39C664.249 976.36 682.359 995.31 700.459 1014.29C717.449 1032.1 734.409 1049.93 751.399 1067.75C769.829 1087.08 788.289 1106.38 806.679 1125.74C816.369 1135.95 828.089 1143.1 841.179 1147.79C850.619 1151.17 860.669 1150.91 870.639 1150.92C887.569 1150.94 902.579 1145.03 915.519 1134.97C929.289 1124.27 939.009 1110.37 943.939 1093.07C947.479 1080.64 947.659 1068.14 945.789 1055.9C943.579 1041.49 937.129 1028.32 927.059 1017.46C912.059 1001.3 896.819 985.38 881.569 969.46C860.539 947.49 839.349 925.69 818.359 903.68C804.029 888.66 789.999 873.35 775.729 858.28C756.919 838.41 738.009 818.64 719.129 798.84C711.689 791.04 704.289 783.22 696.699 775.56C693.909 772.75 694.109 770.63 696.699 767.8C722.519 739.53 748.299 711.22 773.999 682.84C803.149 650.64 832.129 618.29 861.299 586.12C882.809 562.41 904.599 538.94 926.119 515.24C956.069 482.25 985.849 449.09 1015.79 416.08C1036 393.79 1056.39 371.67 1076.64 349.42C1092.12 332.41 1107.47 315.27 1122.96 298.26C1127.15 293.66 1128.04 293.86 1131.57 299.04C1162.02 343.7 1185.92 391.65 1204.23 442.47C1215.93 474.94 1225.77 507.99 1232.08 541.84C1238.03 573.75 1242.04 606.04 1246.19 638.26C1247.95 651.89 1248.43 665.75 1248.52 679.51C1248.78 717.99 1249.26 756.49 1248.16 794.93C1247.64 812.96 1244.04 830.95 1241.23 848.86C1233.7 896.88 1221.14 943.61 1203.51 988.89C1175.22 1061.54 1136.3 1127.92 1084.11 1186.06C1036.76 1238.81 983.089 1284.24 923.219 1322.3C880.439 1349.49 835.339 1372.02 788.249 1390.75C745.229 1407.86 701.079 1421.26 655.999 1431.46C614.069 1440.95 571.539 1446.7 528.809 1451.68C485.159 1456.76 441.519 1456.13 397.809 1456.15C291.869 1456.21 185.939 1456.18 79.9989 1456.15C76.7589 1456.15 73.5189 1455.84 70.2789 1455.68C70.1389 1455.17 70.0089 1454.65 69.8789 1454.13Z" fill="url(#paint1_linear_678_7)"/>
<defs>
<linearGradient id="paint0_linear_678_7" x1="452.455" y1="251.888" x2="577.614" y2="1270.14" gradientUnits="userSpaceOnUse">
<stop stop-color="#26EDE3"/>
<stop offset="0.094" stop-color="#23DFE6"/>
<stop offset="0.3316" stop-color="#1EC1EC"/>
<stop offset="0.5653" stop-color="#19ABF0"/>
<stop offset="0.791" stop-color="#179EF3"/>
<stop offset="1" stop-color="#169AF4"/>
</linearGradient>
<linearGradient id="paint1_linear_678_7" x1="346.892" y1="539.934" x2="1056" y2="1481.8" gradientUnits="userSpaceOnUse">
<stop stop-color="#3EE4E0"/>
<stop offset="0.3622" stop-color="#32C5EE"/>
<stop offset="0.7677" stop-color="#26A8FA"/>
<stop offset="1" stop-color="#229DFF"/>
</linearGradient>
</defs>
</svg>
